<svg id="visual" viewBox="0 0 900 900" width="900" height="900" xmlns="http://www.w3.org/2000/svg" xmlns:xlink="http://www.w3.org/1999/xlink" version="1.1"><g transform="translate(448.22497150272983 419.55777007445795)"><path d="M85.8 -69.8C140.6 -78.2 234.9 -92.6 265.5 -69.5C296.1 -46.4 263.1 14.2 223.9 53.5C184.6 92.7 139 110.7 100.7 137.9C62.3 165.1 31.2 201.5 -28.5 240.8C-88.2 280 -176.3 322 -212.2 294C-248 266 -231.5 167.9 -237 91.1C-242.5 14.3 -270.1 -41.2 -273.6 -106.9C-277 -172.6 -256.4 -248.5 -206.7 -241.8C-157.1 -235 -78.6 -145.6 -31.5 -102.2C15.5 -58.8 31 -61.4 85.8 -69.8" fill="none" stroke="#ff3f51" stroke-width="6"></path></g></svg>