<svg id="visual" viewBox="0 0 900 900" width="900" height="900" xmlns="http://www.w3.org/2000/svg" xmlns:xlink="http://www.w3.org/1999/xlink" version="1.1"><g transform="translate(507.36287139922865 456.1110914790518)"><path d="M177.7 -239.8C201.8 -227.1 173.2 -137 180.6 -69.3C188 -1.5 231.4 43.9 233.2 87.3C235 130.7 195.1 172.2 149.3 198.8C103.5 225.4 51.7 237.2 10.1 223.3C-31.5 209.4 -63.1 169.8 -134.4 151.5C-205.7 133.2 -316.9 136.1 -342.1 101.1C-367.4 66 -306.9 -7 -241.1 -37.8C-175.2 -68.5 -104.2 -57 -63.1 -64.2C-22 -71.3 -11 -97.2 32.9 -142.4C76.8 -187.7 153.6 -252.4 177.7 -239.8" fill="none" stroke="#ff3f51" stroke-width="6"></path></g></svg>